<?xml version="1.0" standalone="no"?><!DOCTYPE svg PUBLIC "-//W3C//DTD SVG 1.1//EN" "http://www.w3.org/Graphics/SVG/1.1/DTD/svg11.dtd"><svg t="1676622209625" class="icon" viewBox="0 0 1027 1024" version="1.1" xmlns="http://www.w3.org/2000/svg" p-id="2429" width="48.140625" height="48" xmlns:xlink="http://www.w3.org/1999/xlink"><path d="M492.032 217.568c-221.632 0-401.92 180.256-401.92 401.888s180.288 401.952 401.92 401.952c221.6 0 401.92-180.352 401.92-401.952S713.632 217.568 492.032 217.568z m0 731.68c-181.856 0-329.792-147.936-329.792-329.824 0-181.824 147.936-329.76 329.792-329.76S821.824 437.632 821.824 619.424c0 181.888-147.904 329.824-329.792 329.824z" fill="#40f4ca" p-id="2430"></path><path d="M108.16 254.528m-108.192 0a108.192 108.192 0 1 0 216.384 0 108.192 108.192 0 1 0-216.384 0Z" fill="#40f4ca" p-id="2431"></path><path d="M853.184 229.056m-82.72 0a82.72 82.72 0 1 0 165.44 0 82.72 82.72 0 1 0-165.44 0Z" fill="#40f4ca" p-id="2432"></path><path d="M975.968 85.504m-51.84 0a51.84 51.84 0 1 0 103.68 0 51.84 51.84 0 1 0-103.68 0Z" fill="#40f4ca" p-id="2433"></path><path d="M311.04 105.792m-40.576 0a40.576 40.576 0 1 0 81.152 0 40.576 40.576 0 1 0-81.152 0Z" fill="#40f4ca" p-id="2434"></path><path d="M376.32 449.536c-50.304 0-89.536 14.08-117.696 42.24-28.192 28.192-42.272 67.52-42.272 118.112 0 36.192 7.104 66.368 21.344 90.432 14.208 24.128 32.768 41.728 55.68 52.864 22.88 11.072 51.808 16.672 86.752 16.672 34.368 0 63.072-6.432 86.112-19.328a131.104 131.104 0 0 0 52.832-54.08c12.16-23.2 18.272-52.864 18.272-89.088 0-49.888-13.952-88.672-41.856-116.32-27.872-27.712-67.616-41.504-119.168-41.504z m48.384 228.64c-11.296 13.376-27.2 20.064-47.744 20.064-20.032 0-35.808-6.816-47.424-20.512-11.648-13.696-17.44-36.128-17.44-67.424 0-31.52 5.856-54.144 17.568-67.808 11.68-13.664 27.168-20.512 46.496-20.512 20.096 0 36.064 6.72 47.872 20.192 11.744 13.44 17.664 34.752 17.664 63.936-0.064 34.624-5.728 58.656-16.992 72.064zM642.752 708.288c3.872-3.136 11.552-9.984 23.008-17.952 19.296-13.6 32.608-26.72 39.936-38.08 7.296-11.392 10.976-23.648 10.976-36.096 0-11.776-3.2-22.528-9.568-31.968a56.832 56.832 0 0 0-26.272-21.12c-11.168-4.576-26.752-6.912-46.784-6.912-19.232 0-34.24 2.368-45.12 7.168a56.48 56.48 0 0 0-25.216 20.704c-5.952 8.96-10.048 21.472-12.288 37.536l57.056 4.64c1.568-11.552 4.672-19.648 9.28-24.224a24.32 24.32 0 0 1 17.824-6.848c7.008 0 12.8 2.208 17.44 6.624a21.44 21.44 0 0 1 6.912 16.032c0 5.76-2.336 11.904-6.976 18.304-4.704 6.432-15.36 15.808-32.032 28.192-27.328 20.288-45.92 35.264-55.872 50.048-9.92 14.912-15.872 45.088-17.824 45.088h156.064v-36.064H629.184c5.152 0 9.696-11.936 13.568-15.072z" fill="#40f4ca" p-id="2435"></path></svg>